<svg xmlns="http://www.w3.org/2000/svg" viewBox="0 0 130 65"><defs><style>.cls-1{fill:none;}</style></defs><title>Asset 16</title><g id="Layer_2" data-name="Layer 2"><g id="Layer_1-2" data-name="Layer 1"><path d="M52.6,25.5a22.7,22.7,0,0,0-5.7-6.1L42.5,16l-2.6-2h0c-.6-.5-.7-.6-.4-1A21.6,21.6,0,0,1,52.4,4.6a2.4,2.4,0,0,0,2.1-2.9A2.8,2.8,0,0,0,53.6.3,2.7,2.7,0,0,0,51.4.2H51a46.2,46.2,0,0,0-6,1.9,22.5,22.5,0,0,0-9.8,8.2c-1.7,2.4-1.4,4.9.7,7l1.9,1.7,2.6,1.8,4.8,3.8c4.9,4.3,5.3,9.2,1.1,14.2A32.7,32.7,0,0,1,38,46.2c-7.5,4.6-16.1,8-26.5,10.5l-3.9.7-1.5.2h0a2.7,2.7,0,0,0-1.8-2.9,2.5,2.5,0,0,0-3,1.5L.4,58.5l-.3,1H0v2.5H.1a3.6,3.6,0,0,0,3.5,2.3h4A72.7,72.7,0,0,0,20.8,61c6.8-2.3,14.7-5.4,21.7-10.5,4.8-3.5,7.9-6.8,10.1-10.7S55.3,30.1,52.6,25.5Z"/><path d="M128.8,12.3a2.3,2.3,0,0,0-3.3-.5L121.8,14c-7.1,4.7-14.3,9.3-21.5,13.9L87.6,36.1a24,24,0,0,0,1.1-2.3,2.6,2.6,0,0,0-.1-2.6,2.3,2.3,0,0,0-2.3-.7l-2.4.6-1,.4-1.1.3c0-.1.1-.3.1-.4l.5-1.7c.3-1.1.6-2.2,1-3.3a2,2,0,0,0-1.1-2.5,2.1,2.1,0,0,0-2.7.7l-.3.4a10.5,10.5,0,0,0-.8,1.1c-1.1,1.7-2,3.5-1.6,5.6a6.1,6.1,0,0,1-.4,3,3.1,3.1,0,0,0-.2.8c-.1.3-.3.7-1,.5L73,35.7h-.6c.1-.7.1-1.4.2-2.1s.3-3.5.3-5.2A2.5,2.5,0,0,0,72,26a2.9,2.9,0,0,0-2.3-.3,11.5,11.5,0,0,0-3.5,2,24,24,0,0,0-2.8,3.7A201.8,201.8,0,0,0,50,58.1l-.3.5c-.4,1.1-.9,2.2-1.3,3.2a2.3,2.3,0,0,0,.3,2.3,2.2,2.2,0,0,0,1.9.9h.2a2.3,2.3,0,0,0,1.9-1.6c5-9.9,9.4-18.8,13.9-27.8a14.8,14.8,0,0,1,1.3-2.1c-.1.2-.1.4-.2.6h0c-.4,1.9-.8,3.8-2.2,5.2A7.1,7.1,0,0,0,63.7,44a2.5,2.5,0,0,0,1.7,2.5,2.2,2.2,0,0,0,2.7-1,16.2,16.2,0,0,1,1-1.8L70.6,41c.4-.5.7-.8.9-.8a12.9,12.9,0,0,1,3.4,0h.9a4.1,4.1,0,0,0,3.9-2.4,10.1,10.1,0,0,0,.7-1.5c0-.1.1-.3.1-.4h2.2v.2l-1.3,1.9A23.7,23.7,0,0,1,75,44a2.2,2.2,0,0,0-.6,3.2,2.1,2.1,0,0,0,3,.7L80,46.5c11.1-6.3,22.9-13.8,37.2-23.4,3.3-2.2,6.5-4.5,9.6-6.7l1.2-.9A2.3,2.3,0,0,0,128.8,12.3Z"/><path d="M93.2,41h0A4.2,4.2,0,0,0,89,45.2a4.1,4.1,0,0,0,4.2,4.2h0a4.2,4.2,0,0,0,3-1.2,4.4,4.4,0,0,0,1.3-3.1,3.9,3.9,0,0,0-1.2-2.8A4.4,4.4,0,0,0,93.2,41Z"/><rect class="cls-1" width="130" height="65"/></g></g></svg>