<svg xmlns="http://www.w3.org/2000/svg" viewBox="0 0 752.3 443.6"><defs><style>.cls-1{fill:#fff;}</style></defs><title>Asset 23</title><g id="Layer_2" data-name="Layer 2"><g id="Layer_1-2" data-name="Layer 1"><path class="cls-1" d="M313.3,186.3c-9-15.4-21.7-29.1-41.3-44.5-10.6-8.3-21.6-16.7-32.2-24.7l-18.7-14.3-.6-.4c-4.2-3.2-6.2-5.1-2.7-9.7,25.8-33.8,56.9-54.2,95.3-62.4,10.8-2.3,15.8-9.3,14-19.2-.8-4.2-2.7-7.4-5.7-9.2S313-.6,307.1,1.1l-2.8.8c-14.7,4.1-29.8,8.3-43.9,14.5-30.1,13.1-54.2,32.9-71.7,58.9-5.9,8.8-8.4,17.4-7.5,25.7s5,16.3,12.5,23.6a136.7,136.7,0,0,0,14.2,12.1c6.1,4.7,12.3,9.4,18.4,13.9,11.9,8.8,24.3,18,35.6,27.9,37,32,40,69,8.7,107A247.7,247.7,0,0,1,208.7,339c-55.1,34-57.1,34.5-109.2,46.8l-16.7,3.9c-9.4,2.3-19,3.6-29,5l-12.5,1.9V394c.6-10.1-3.8-16.9-12.4-19.4s-15.2.7-19.4,9.7a141.7,141.7,0,0,0-6.7,17.4L.1,409.4v18.1c4.8,10.6,13,15.9,24.4,15.9h2.6l9.5-.4c5.6-.2,11.3-.5,16.9-1.2,30.8-4.1,62.5-11.8,96.9-23.7h0c29.1-11.1,64.2-30.8,89.3-50.1C256,356,269.5,344.6,280.8,333a197.4,197.4,0,0,0,32.6-43.1C332.9,254.6,332.9,219.8,313.3,186.3Z"/><path class="cls-1" d="M749.8,139.3c-4.9-7.3-13.3-8.6-22-3.5s-18.7,11.5-26.6,16.6c-42.2,27.2-54.3,34.6-66,41.8s-23.8,14.6-66.2,42a34,34,0,0,1-3.4,2c.9-1.7,1.8-3.4,2.6-5.1,3-6.1,5.8-11.8,8.4-17.6s2.8-12.9-.4-17-8.5-5.9-15.4-5-11.4,2.8-16.8,4.8c-2.5,1-5.1,1.9-7.7,2.7l-8.6,2.6-2.8.8c.2-.7.3-1.2.5-1.8s.8-3.4,1.2-4.8c1.2-4.1,2.4-8.2,3.6-12.1,2.3-7.9,4.8-16.1,7-24.2s-.2-13.7-6.8-16.6-13-1.3-17.4,4.7l-2.2,2.9c-2,2.6-4,5.3-5.8,8.1-7.2,11.1-14.5,24.2-11.6,39.7,1.6,8.3-.6,15.6-3,23.2-.6,1.9-1.2,3.8-1.7,5.8q-1.8,6.3-9,5.1l-17.1-2.8-6.1-1.1a9.9,9.9,0,0,0,.2-1.8c.4-5.2.9-10.5,1.3-15.7,1.1-12.5,2.3-25.4,2.6-38.2.2-6.2-1.9-11.3-6-14.3s-9.5-3.7-15.2-1.8-17.1,6.6-24.9,13.9-15,18-20.3,26.8a1453.1,1453.1,0,0,0-98.9,195.7l-1.8,4.3c-3.2,7.6-6.5,15.5-9.4,23.5-1.9,5.5-1.3,10.9,1.7,15a15,15,0,0,0,12.3,5.7h1.4c7.2-.5,10.3-5.5,12.9-10.6,36.1-72.6,68.8-138.1,102.1-204.4,2.8-5.8,6.3-11.4,9.6-16.8l3.9-6.3c-.2,1-.3,2.1-.4,3.1-.4,3.3-.8,6.7-1.5,9.9l-.2,1c-3.3,14.6-6.3,28.3-17.1,39.5-7.6,7.8-11.9,19-12.5,32.1a16.5,16.5,0,0,0,11.4,16.7c7.3,2.3,13.4-.1,17.3-6.8l7.4-12.7c3.7-6.6,7.6-13.3,11.6-19.8,2-3.1,5.2-6.9,7.8-7.2a104.5,104.5,0,0,1,25.6.2c7.8,1,14.2.3,19.7-2.3s10.1-7.3,13.7-14a112.1,112.1,0,0,0,4.7-10.7c.6-1.2,1.1-2.5,1.6-3.7h20.3l-2.7,4.2c-3,4.5-6.1,9.2-9.4,13.6a189.2,189.2,0,0,1-46.4,44.2c-7.5,4.9-9.2,13.2-4.2,21.1s11.1,8.8,19.6,4.5,13.3-7.1,19.4-10.6c27.5-15.7,44.1-24.9,56.3-31.6,29.1-16.2,32.2-17.9,95.3-60.2,23.8-16,47.5-33,70.5-49.3l8.8-6.3c4-2.8,6.5-6.3,7.4-10A13.8,13.8,0,0,0,749.8,139.3Z"/><path class="cls-1" d="M611.4,271.2h0a29,29,0,0,0-.3,58h.3a29.7,29.7,0,0,0,20.7-8.6,30.3,30.3,0,0,0,9-21.2,27.7,27.7,0,0,0-8.1-19.5A30.3,30.3,0,0,0,611.4,271.2Z"/></g></g></svg>